<?xml version="1.0" encoding="UTF-8" standalone="no"?>
<!DOCTYPE svg PUBLIC "-//W3C//DTD SVG 1.1//EN" "http://www.w3.org/Graphics/SVG/1.1/DTD/svg11.dtd">
<svg width="100%" height="100%" viewBox="0 0 320 320" version="1.1" xmlns="http://www.w3.org/2000/svg" xmlns:xlink="http://www.w3.org/1999/xlink" xml:space="preserve" xmlns:serif="http://www.serif.com/" style="fill-rule:evenodd;clip-rule:evenodd;stroke-linejoin:round;stroke-miterlimit:2;">
    <g transform="matrix(0.561593,0,0,0.561593,67.6926,35.1088)">
        <path d="M134.9,356.5L134.9,213C139.1,213.4 143.2,213.6 147.2,213.6C167.3,213.6 186.1,208.3 202.1,199.1L202.1,356.6C202.1,370 199,380 192.7,386.6C186.4,393.2 178.3,396.5 168.2,396.5C158.4,396.5 150.5,393.2 144.3,386.4C138.3,379.5 134.9,369.8 134.9,356.5ZM135.3,12.7C176.9,-1.9 224.5,-1.1 260,28.9C266.6,35 274.2,42.5 277.1,51.6C280.8,62.8 264.6,50.5 262.2,48.8C250.6,41.4 239,35.2 225.9,30.9C155.9,9.9 89.6,47.8 48.4,107C31.5,133 20.2,160.4 11,190.6C10.1,193.9 9.2,198.2 7.3,201.1C5.5,204.4 6.6,192.3 6.6,191.7C8.1,179.2 10.7,167.2 13.8,155.1C32.9,90.9 74.9,37.3 135.3,12.7ZM216,128.3C216,155.6 193.9,177.8 166.6,177.8C139.3,177.8 117.2,155.7 117.2,128.3C117.2,100.9 139.3,78.8 166.6,78.8C193.9,78.8 216,100.9 216,128.3Z" style="fill:rgb(0,58,155);"/>
    </g>
    <g transform="matrix(0.130435,0,0,0.130435,-6.30435,-6.30435)">
        <path d="M663.773,785.714L182.143,785.714C150.536,785.714 125,760.179 125,728.571C125,696.964 150.536,671.429 182.143,671.429L671.429,671.429L671.429,182.143C671.429,150.536 696.964,125 728.571,125C760.179,125 785.714,150.536 785.714,182.143L785.714,599.127C738.75,655.907 697.972,718.566 663.773,785.714ZM1764.29,473.745L1764.29,182.143C1764.29,150.536 1789.82,125 1821.43,125C1853.04,125 1878.57,150.536 1878.57,182.143L1878.57,671.429L2367.86,671.429C2399.46,671.429 2425,696.964 2425,728.571C2425,760.179 2399.46,785.714 2367.86,785.714L1821.43,785.714C1789.82,785.714 1764.29,760.179 1764.29,728.571L1764.29,641.322C1779.26,636.145 1790.71,626.154 1799,612.717C1806.41,600.705 1815.61,578.994 1804.17,544.078C1795.99,518.585 1781.39,495.043 1764.29,473.745ZM182.143,1764.29L728.571,1764.29C760.179,1764.29 785.714,1789.82 785.714,1821.43L785.714,2367.86C785.714,2399.46 760.179,2425 728.571,2425C696.964,2425 671.429,2399.46 671.429,2367.86L671.429,1878.57L182.143,1878.57C150.536,1878.57 125,1853.04 125,1821.43C125,1789.82 150.536,1764.29 182.143,1764.29ZM1821.43,1764.29L2367.86,1764.29C2399.46,1764.29 2425,1789.82 2425,1821.43C2425,1853.04 2399.46,1878.57 2367.86,1878.57L1878.57,1878.57L1878.57,2367.86C1878.57,2399.46 1853.04,2425 1821.43,2425C1789.82,2425 1764.29,2399.46 1764.29,2367.86L1764.29,1821.43C1764.29,1789.82 1789.82,1764.29 1821.43,1764.29Z" style="fill-rule:nonzero;"/>
    </g>
</svg>
